<?xml version="1.0" encoding="UTF-8"?>
<svg width="53px" height="39px" viewBox="0 0 53 39" version="1.1" xmlns="http://www.w3.org/2000/svg" xmlns:xlink="http://www.w3.org/1999/xlink">
    <title>logo@1x</title>
    <g id="logo" stroke="none" stroke-width="1" fill="none" fill-rule="evenodd">
        <path d="M32.8524851,0.344 C43.8468867,0.344 47.028008,3.58093042 47.028008,10.724501 C47.028008,14.965996 45.4095427,17.5890258 41.3912843,18.7610179 L41.3912843,18.9842545 C45.911825,20.0446282 48.2,23.0583221 48.2,27.9137177 C48.2,35.2247157 44.8514513,39.0755467 33.968668,39.0755467 L20.128,39.0755467 L20.128,0.344 Z M31.8029156,21.4689709 L30.9711226,23.7543033 L35.4816472,25.396 L35.4638483,25.4916828 L28.5717578,29.5044484 L27.7344925,31.8048159 L36.274419,34.913095 L37.1116843,32.6127274 L31.8494056,30.6974146 L31.8822396,30.6072042 L38.8208173,26.560278 L39.6361933,24.3200508 L31.8029156,21.4689709 Z M35.0541196,4.49670954 L26.7834007,5.65908328 L27.12855,8.11494809 L29.869612,7.72971695 L31.0698408,16.2697888 L33.8584357,15.8778773 L32.6582069,7.33780549 L35.3992689,6.95257435 L35.0541196,4.49670954 Z" id="形状结合" fill="#3570FF" fill-rule="nonzero"></path>
    </g>
</svg>